# xmcd
#
# Track frame offsets:
#	150
#	13527
#	27454
#	42606
#	57621
#	71831
#	86023
#	99277
#	111959
#	125268
#	139856
#	152395
#	167121
#	182483
#
# Disc length: 2616 seconds
#
# Revision: 1
# Processed by: cddbd v1.4PL0 Copyright (c) Steve Scherf et al.
# Submitted via: audiograbber 1.82.02
#
DISCID=bd0a360e
DTITLE=Linda Feller - Du tust mir so gut
DYEAR=2002
DGENRE=Country
TTITLE0=Männer wollen nur das eine
TTITLE1=Du weisst, was Frauen lieben
TTITLE2=Weil du mich liebst
TTITLE3=Mehr als ein Second Hand Gefühl
TTITLE4=Ganz und Gar
TTITLE5=Keiner lügt so schlecht wie du
TTITLE6=Damit ist jetzt Schluss
TTITLE7=Ich will dich
TTITLE8=Wie ist das nur möglich
TTITLE9=Es wird höchste Zeit
TTITLE10=Auch eine Frau kann durchaus ihren Mann Steh´n
TTITLE11=Das imponiert mir nicht
TTITLE12=Du tust mir so gut
TTITLE13=Wie ein stern in der Nacht
EXTD=
EXTT0=
EXTT1=
EXTT2=
EXTT3=
EXTT4=
EXTT5=
EXTT6=
EXTT7=
EXTT8=
EXTT9=
EXTT10=
EXTT11=
EXTT12=
EXTT13=
PLAYORDER=
